<svg version="1.1" viewBox="0.0 0.0 486.13123359580055 505.6745406824147" fill="none" stroke="none" stroke-linecap="square" stroke-miterlimit="10" xmlns:xlink="http://www.w3.org/1999/xlink" xmlns="http://www.w3.org/2000/svg"><clipPath id="p.0"><path d="m0 0l486.13123 0l0 505.67453l-486.13123 0l0 -505.67453z" clip-rule="nonzero"/></clipPath><g clip-path="url(#p.0)"><path fill="#000000" fill-opacity="0.0" d="m0 0l486.13123 0l0 505.67453l-486.13123 0z" fill-rule="evenodd"/><path fill="#000000" fill-opacity="0.0" d="m375.61642 238.35695c14.574829 6.403778 71.7034 23.109879 87.448975 38.422623c15.745575 15.312714 24.201477 35.914368 7.0245056 53.453735c-17.177002 17.539368 -90.30673 33.128815 -110.08646 51.78241c-19.779724 18.653595 -21.47406 43.294464 -8.591888 60.1391c12.882202 16.844635 65.91809 31.596619 85.88498 40.92871c19.966858 9.332092 28.26361 12.553162 33.91632 15.063812" fill-rule="evenodd"/><path stroke="#000000" stroke-width="8.0" stroke-linejoin="round" stroke-linecap="butt" d="m375.61642 238.35695c14.574829 6.403778 71.7034 23.109879 87.448975 38.422623c15.745575 15.312714 24.201477 35.914368 7.0245056 53.453735c-17.177002 17.539368 -90.30673 33.128815 -110.08646 51.78241c-19.779724 18.653595 -21.47406 43.294464 -8.591888 60.1391c12.882202 16.844635 65.91809 31.596619 85.88498 40.92871c19.966858 9.332092 28.26361 12.553162 33.91632 15.063812" fill-rule="evenodd"/><path fill="#ffffff" d="m59.43391 299.49866c-5.1837196 -1.1138 -17.311779 -4.4849243 -23.420887 -4.0035095c-6.10911 0.4814148 -9.569185 3.9806213 -13.23377 6.8919373c-3.664587 2.9112854 -7.013712 6.8983154 -8.753745 10.575897c-1.7400341 3.6775818 -3.087041 8.144745 -1.6864576 11.489532c1.4005833 3.344818 3.9066792 5.103607 10.089956 8.579285c6.183277 3.475708 18.149408 9.443512 27.009703 12.274841c8.860298 2.8313293 20.33025 4.4859924 26.15208 4.7131042c5.8218384 0.22711182 6.0787277 0.9574585 8.778938 -3.3503723c2.7002106 -4.307831 7.3439636 -16.764221 7.422333 -22.496582c0.07836151 -5.732361 -2.8393555 -8.231781 -6.952141 -11.897583c-4.1127853 -3.665802 -13.490257 -7.967865 -17.724594 -10.09729c-4.234337 -2.129425 -2.4977036 -1.5654602 -7.6814156 -2.6792603z" fill-rule="evenodd"/><path stroke="#000000" stroke-width="4.0" stroke-linejoin="round" stroke-linecap="butt" d="m59.43391 299.49866c-5.1837196 -1.1138 -17.311779 -4.4849243 -23.420887 -4.0035095c-6.10911 0.4814148 -9.569185 3.9806213 -13.23377 6.8919373c-3.664587 2.9112854 -7.013712 6.8983154 -8.753745 10.575897c-1.7400341 3.6775818 -3.087041 8.144745 -1.6864576 11.489532c1.4005833 3.344818 3.9066792 5.103607 10.089956 8.579285c6.183277 3.475708 18.149408 9.443512 27.009703 12.274841c8.860298 2.8313293 20.33025 4.4859924 26.15208 4.7131042c5.8218384 0.22711182 6.0787277 0.9574585 8.778938 -3.3503723c2.7002106 -4.307831 7.3439636 -16.764221 7.422333 -22.496582c0.07836151 -5.732361 -2.8393555 -8.231781 -6.952141 -11.897583c-4.1127853 -3.665802 -13.490257 -7.967865 -17.724594 -10.09729c-4.234337 -2.129425 -2.4977036 -1.5654602 -7.6814156 -2.6792603z" fill-rule="evenodd"/><path fill="#ffffff" d="m161.8512 392.34528c-5.0535583 1.6620789 -17.21782 4.87796 -22.374756 8.414124c-5.1569366 3.5361328 -6.6411285 8.375824 -8.566895 12.802795c-1.9257507 4.427002 -3.0951996 9.639038 -2.987671 13.759094c0.10752869 4.1200256 0.9121704 8.734039 3.632843 10.961212c2.7206726 2.2271729 5.707199 2.4965515 12.691208 2.4017944c6.984009 -0.0947876 20.162064 -0.94506836 29.212875 -2.970459c9.050827 -2.0253906 19.872208 -6.4150696 25.092041 -9.181915c5.219818 -2.7668152 5.770859 -2.2555847 6.2269287 -7.4190063c0.45606995 -5.163452 -1.0071411 -18.481659 -3.4905243 -23.561615c-2.4833832 -5.079956 -6.16156 -5.790802 -11.40979 -6.9181824c-5.2482452 -1.1274109 -15.4086 -0.1315918 -20.07965 0.15374756c-4.671036 0.28536987 -2.8930511 -0.10369873 -7.9466095 1.5584106z" fill-rule="evenodd"/><path stroke="#000000" stroke-width="4.0" stroke-linejoin="round" stroke-linecap="butt" d="m161.8512 392.34528c-5.0535583 1.6620789 -17.21782 4.87796 -22.374756 8.414124c-5.1569366 3.5361328 -6.6411285 8.375824 -8.566895 12.802795c-1.9257507 4.427002 -3.0951996 9.639038 -2.987671 13.759094c0.10752869 4.1200256 0.9121704 8.734039 3.632843 10.961212c2.7206726 2.2271729 5.707199 2.4965515 12.691208 2.4017944c6.984009 -0.0947876 20.162064 -0.94506836 29.212875 -2.970459c9.050827 -2.0253906 19.872208 -6.4150696 25.092041 -9.181915c5.219818 -2.7668152 5.770859 -2.2555847 6.2269287 -7.4190063c0.45606995 -5.163452 -1.0071411 -18.481659 -3.4905243 -23.561615c-2.4833832 -5.079956 -6.16156 -5.790802 -11.40979 -6.9181824c-5.2482452 -1.1274109 -15.4086 -0.1315918 -20.07965 0.15374756c-4.671036 0.28536987 -2.8930511 -0.10369873 -7.9466095 1.5584106z" fill-rule="evenodd"/><path fill="#ffffff" d="m359.80368 49.186153c4.416382 0.633934 9.909943 2.996067 14.864899 5.5312004c4.9549866 2.5351334 9.909943 5.9346695 14.864899 9.679604c4.9549866 3.7449265 11.229401 9.332993 14.864899 12.789993c3.6355286 3.456993 5.6824036 5.8778 6.9481506 7.9520035c1.2657471 2.0742035 0.88861084 1.8428268 0.64630127 4.4931946c-0.24227905 2.6503677 -0.726593 5.186409 -2.1000366 11.409004c-1.3734741 6.222603 -2.0474854 13.020462 -6.1407166 25.926598c-4.093231 12.906136 -10.528503 31.1139 -18.418701 51.5102c-7.890167 20.396301 -22.43219 55.599335 -28.922333 70.8676c-6.490143 15.2682495 -7.0561523 15.354767 -10.018494 20.742004c-2.9623718 5.3872375 -5.1435547 9.218964 -7.755615 11.58139c-2.6120605 2.3624268 -3.5543518 3.9185486 -7.916748 2.5932007c-4.3623962 -1.3253174 -14.864624 -7.3186646 -18.257538 -10.545197c-3.3929443 -3.226532 -4.0121155 -2.505188 -2.1000671 -8.813995c1.9120483 -6.3088074 10.01767 -18.437332 13.572296 -29.038803c3.554657 -10.601471 3.8778076 -6.8562317 7.755615 -34.569992c3.8778076 -27.713776 12.764557 -106.64921 15.5112 -131.71262c2.7466125 -25.063404 -1.1317444 -15.26857 0.9685974 -18.667805c2.1003418 -3.399231 7.2170105 -2.3615265 11.633392 -1.7275925z" fill-rule="evenodd"/><path stroke="#000000" stroke-width="3.0" stroke-linejoin="round" stroke-linecap="butt" d="m359.80368 49.186153c4.416382 0.633934 9.909943 2.996067 14.864899 5.5312004c4.9549866 2.5351334 9.909943 5.9346695 14.864899 9.679604c4.9549866 3.7449265 11.229401 9.332993 14.864899 12.789993c3.6355286 3.456993 5.6824036 5.8778 6.9481506 7.9520035c1.2657471 2.0742035 0.88861084 1.8428268 0.64630127 4.4931946c-0.24227905 2.6503677 -0.726593 5.186409 -2.1000366 11.409004c-1.3734741 6.222603 -2.0474854 13.020462 -6.1407166 25.926598c-4.093231 12.906136 -10.528503 31.1139 -18.418701 51.5102c-7.890167 20.396301 -22.43219 55.599335 -28.922333 70.8676c-6.490143 15.2682495 -7.0561523 15.354767 -10.018494 20.742004c-2.9623718 5.3872375 -5.1435547 9.218964 -7.755615 11.58139c-2.6120605 2.3624268 -3.5543518 3.9185486 -7.916748 2.5932007c-4.3623962 -1.3253174 -14.864624 -7.3186646 -18.257538 -10.545197c-3.3929443 -3.226532 -4.0121155 -2.505188 -2.1000671 -8.813995c1.9120483 -6.3088074 10.01767 -18.437332 13.572296 -29.038803c3.554657 -10.601471 3.8778076 -6.8562317 7.755615 -34.569992c3.8778076 -27.713776 12.764557 -106.64921 15.5112 -131.71262c2.7466125 -25.063404 -1.1317444 -15.26857 0.9685974 -18.667805c2.1003418 -3.399231 7.2170105 -2.3615265 11.633392 -1.7275925z" fill-rule="evenodd"/><path fill="#ffffff" d="m357.86746 252.5287c1.9642334 -1.5058441 3.3593445 -1.420929 6.394562 -1.4387817c3.0351868 -0.017868042 8.285034 0.93992615 11.81662 1.3316498c3.5316162 0.39170837 6.5283203 0.47096252 9.372986 1.0186462c2.8446655 0.5476837 4.5828247 1.603653 7.694977 2.2674103c3.112152 0.6637726 9.524475 -2.547577 10.977875 1.7151337c1.4533691 4.2626953 -0.45925903 15.607971 -2.2575684 23.861115c-1.7983093 8.253143 -6.3088684 20.0383 -8.532288 25.657776c-2.2234192 5.6194763 -2.0878906 6.2231445 -4.8082275 8.059113c-2.7203064 1.8359985 -7.068207 3.050537 -11.513763 2.956726c-4.4455566 -0.093811035 -11.054901 -1.7862549 -15.159607 -3.5195618c-4.1047363 -1.7333374 -7.200897 -4.115692 -9.468689 -6.88031c-2.2678223 -2.7646484 -3.7661438 -5.8390503 -4.138214 -9.7074585c-0.3720703 -3.8684082 1.565979 -10.548401 1.9057922 -13.503021c0.33984375 -2.9546204 0.8641052 -3.5933838 0.13311768 -4.2246704c-0.73098755 -0.6312866 -2.751587 0.5518799 -4.519104 0.43692017c-1.7674866 -0.11495972 -4.5226746 -0.2446289 -6.085968 -1.1266785c-1.5632629 -0.8820801 -2.842926 -2.6643372 -3.2937317 -4.165802c-0.45080566 -1.5014343 -0.4112854 -3.1671448 0.5888977 -4.842865c1.0002136 -1.6757507 2.8287659 -3.4950256 5.412323 -5.2115173c2.5835571 -1.7165222 7.5090637 -2.9735718 10.08905 -5.087555c2.580017 -2.1139526 3.4266968 -6.0904236 5.3909607 -7.5962677z" fill-rule="evenodd"/><path stroke="#000000" stroke-width="4.0" stroke-linejoin="round" stroke-linecap="butt" d="m357.86746 252.5287c1.9642334 -1.5058441 3.3593445 -1.420929 6.394562 -1.4387817c3.0351868 -0.017868042 8.285034 0.93992615 11.81662 1.3316498c3.5316162 0.39170837 6.5283203 0.47096252 9.372986 1.0186462c2.8446655 0.5476837 4.5828247 1.603653 7.694977 2.2674103c3.112152 0.6637726 9.524475 -2.547577 10.977875 1.7151337c1.4533691 4.2626953 -0.45925903 15.607971 -2.2575684 23.861115c-1.7983093 8.253143 -6.3088684 20.0383 -8.532288 25.657776c-2.2234192 5.6194763 -2.0878906 6.2231445 -4.8082275 8.059113c-2.7203064 1.8359985 -7.068207 3.050537 -11.513763 2.956726c-4.4455566 -0.093811035 -11.054901 -1.7862549 -15.159607 -3.5195618c-4.1047363 -1.7333374 -7.200897 -4.115692 -9.468689 -6.88031c-2.2678223 -2.7646484 -3.7661438 -5.8390503 -4.138214 -9.7074585c-0.3720703 -3.8684082 1.565979 -10.548401 1.9057922 -13.503021c0.33984375 -2.9546204 0.8641052 -3.5933838 0.13311768 -4.2246704c-0.73098755 -0.6312866 -2.751587 0.5518799 -4.519104 0.43692017c-1.7674866 -0.11495972 -4.5226746 -0.2446289 -6.085968 -1.1266785c-1.5632629 -0.8820801 -2.842926 -2.6643372 -3.2937317 -4.165802c-0.45080566 -1.5014343 -0.4112854 -3.1671448 0.5888977 -4.842865c1.0002136 -1.6757507 2.8287659 -3.4950256 5.412323 -5.2115173c2.5835571 -1.7165222 7.5090637 -2.9735718 10.08905 -5.087555c2.580017 -2.1139526 3.4266968 -6.0904236 5.3909607 -7.5962677z" fill-rule="evenodd"/><path fill="#ffffff" d="m148.41577 89.04899c0.2649231 2.6821213 0.76872253 3.7769928 0.29685974 6.9847717c-0.4718628 3.207779 -2.1984406 8.596222 -3.1280212 12.261917c-0.9295807 3.6656876 -1.4868317 6.81691 -2.4494934 9.7322235c-0.96266174 2.9153137 -2.2136993 4.5806046 -3.3264923 7.759651c-1.112793 3.1790466 0.8162079 10.466263 -3.3502502 11.314636c-4.166458 0.8483734 -14.323769 -2.9975739 -21.648499 -6.224411c-7.32473 -3.2268372 -17.473 -9.885262 -22.299896 -13.136597c-4.826889 -3.2513351 -5.405342 -3.204155 -6.6614685 -6.3714066c-1.2561264 -3.1672516 -1.6773834 -7.9535217 -0.8753052 -12.632118c0.80207825 -4.678589 3.428276 -11.384201 5.6877823 -15.4394455c2.2595062 -4.0552444 4.954117 -6.942436 7.869255 -8.892021c2.9151306 -1.9495926 5.9928284 -3.0350876 9.6215515 -2.8055267c3.6287231 0.22956085 9.479919 3.3487244 12.15078 4.1828766c2.670868 0.83415985 2.7002716 1.4417801 3.8744125 0.82205963c1.1741409 -0.61972046 1.973671 -2.6588364 3.170433 -4.5403748c1.1967545 -1.8815384 2.4958572 -5.1867065 4.010109 -6.748863c1.5142517 -1.562149 3.1155853 -2.520008 5.075409 -2.6240501c1.9598236 -0.10404205 4.9908752 0.7083359 6.6835175 1.9997978c1.6926575 1.2914581 2.804596 3.2074814 3.4723816 5.7489624c0.66778564 2.5414886 0.2298584 6.398628 0.53434753 9.499947c0.30448914 3.1013184 1.0276794 6.4258423 1.2925873 9.107971z" fill-rule="evenodd"/><path stroke="#000000" stroke-width="4.0" stroke-linejoin="round" stroke-linecap="butt" d="m148.41577 89.04899c0.2649231 2.6821213 0.76872253 3.7769928 0.29685974 6.9847717c-0.4718628 3.207779 -2.1984406 8.596222 -3.1280212 12.261917c-0.9295807 3.6656876 -1.4868317 6.81691 -2.4494934 9.7322235c-0.96266174 2.9153137 -2.2136993 4.5806046 -3.3264923 7.759651c-1.112793 3.1790466 0.8162079 10.466263 -3.3502502 11.314636c-4.166458 0.8483734 -14.323769 -2.9975739 -21.648499 -6.224411c-7.32473 -3.2268372 -17.473 -9.885262 -22.299896 -13.136597c-4.826889 -3.2513351 -5.405342 -3.204155 -6.6614685 -6.3714066c-1.2561264 -3.1672516 -1.6773834 -7.9535217 -0.8753052 -12.632118c0.80207825 -4.678589 3.428276 -11.384201 5.6877823 -15.4394455c2.2595062 -4.0552444 4.954117 -6.942436 7.869255 -8.892021c2.9151306 -1.9495926 5.9928284 -3.0350876 9.6215515 -2.8055267c3.6287231 0.22956085 9.479919 3.3487244 12.15078 4.1828766c2.670868 0.83415985 2.7002716 1.4417801 3.8744125 0.82205963c1.1741409 -0.61972046 1.973671 -2.6588364 3.170433 -4.5403748c1.1967545 -1.8815384 2.4958572 -5.1867065 4.010109 -6.748863c1.5142517 -1.562149 3.1155853 -2.520008 5.075409 -2.6240501c1.9598236 -0.10404205 4.9908752 0.7083359 6.6835175 1.9997978c1.6926575 1.2914581 2.804596 3.2074814 3.4723816 5.7489624c0.66778564 2.5414886 0.2298584 6.398628 0.53434753 9.499947c0.30448914 3.1013184 1.0276794 6.4258423 1.2925873 9.107971z" fill-rule="evenodd"/><path fill="#ffffff" d="m237.65273 101.04309c-2.2083282 -0.6333313 -6.139847 0.9218674 -10.340805 2.0742035c-4.200943 1.1523285 -9.344482 2.967331 -14.864899 4.839798c-5.520401 1.872467 -14.08345 5.357895 -18.257538 6.3949966c-4.174103 1.0371017 -3.770935 1.3834 -6.7870026 -0.17240143c-3.0160675 -1.5557938 -7.4047394 -6.2815704 -11.309402 -9.162407c-3.904663 -2.8808365 -8.37532 -5.76046 -12.118546 -8.122589c-3.743225 -2.3621292 -7.6747437 -5.560234 -10.340805 -6.0502014c-2.6660614 -0.48996735 -3.7975006 1.3818893 -5.655548 3.1103897c-1.8580475 1.7285004 -3.3115082 3.832344 -5.4927063 7.260605c-2.1811829 3.4282684 -5.5478363 8.353966 -7.594452 13.308998c-2.0466156 4.9550323 -3.9312286 12.503273 -4.6852417 16.421211c-0.75401306 3.917923 -0.45829773 4.954727 0.16114807 7.0863953c0.6194458 2.1316528 1.6703186 3.8598633 3.5554962 5.703598c1.8851776 1.8437195 5.116684 3.399826 7.7556 5.358795c2.638916 1.9589691 4.5504 3.5428925 8.077896 6.3950043c3.5275116 2.8520966 9.263077 7.721527 13.087158 10.717606c3.8240814 2.9960632 6.7604218 5.818527 9.857346 7.258789c3.0969238 1.4402618 4.5504 1.3537598 8.724197 1.3827972c4.173813 0.029037476 10.232529 -0.9206543 16.31865 -1.2085876c6.086136 -0.28793335 15.943207 -0.5477295 20.19815 -0.5189972c4.254959 0.0287323 4.523819 0.086502075 5.331558 0.691391c0.807724 0.6049042 1.3460236 -0.46122742 -0.4851532 2.9380035c-1.8311768 3.399231 -7.0818787 13.135986 -10.501953 17.457397c-3.4200745 4.321396 -4.9018097 4.8697357 -10.018494 8.471008c-5.116684 3.6012726 -14.488037 10.572739 -20.681595 13.136597c-6.193573 2.5638733 -11.174835 1.7281952 -16.479813 2.2465973c-5.3049774 0.5184021 -8.806183 0.5180969 -15.350052 0.86380005c-6.5438538 0.34570312 -15.484329 0.28852844 -23.913094 1.2104034c-8.428757 0.92185974 -20.19645 2.304367 -26.659454 4.3207855c-6.4629974 2.0164337 -7.729019 3.312439 -12.118546 7.7778015c-4.3895264 4.4653625 -9.479065 9.478775 -14.218597 19.014404c-4.7395325 9.535629 -11.633404 29.873856 -14.218601 38.199387c-2.5852013 8.325562 -1.534893 8.815216 -1.2926025 11.753815c0.24229431 2.9385986 0.7805939 3.342682 2.7463531 5.8778076c1.9657593 2.5351257 5.4395485 6.913086 9.048199 9.332977c3.6086502 2.4199219 9.156769 4.4950256 12.603699 5.186432c3.44693 0.69137573 5.788994 -0.1161499 8.077904 -1.0380249c2.28891 -0.9218445 2.5317612 -1.1801453 5.655548 -4.4931946c3.1237793 -3.3130188 8.9399185 -9.450043 13.087151 -15.38501c4.147232 -5.934967 8.07988 -16.537323 11.796249 -20.224792c3.716362 -3.6874695 5.223831 -1.554596 10.501953 -1.8999939c5.2781067 -0.34539795 14.650024 -0.23016357 21.166748 -0.1723938c6.5167084 0.057769775 14.163467 0.34628296 17.933548 0.51898193c3.7700806 0.17269897 3.5289307 -0.087402344 4.6869507 0.5172119c1.15802 0.60458374 5.0618286 -0.20263672 2.2612 3.110382c-2.8006287 3.3130493 -14.971771 12.446106 -19.065002 16.767822c-4.093231 4.321686 -4.1477966 5.129242 -5.4944 9.162415c-1.3466034 4.033142 -2.4506226 6.3653564 -2.585205 15.036591c-0.13456726 8.671204 0.70059204 26.64853 1.7777557 36.990784c1.0771637 10.342285 3.0695038 18.782745 4.685257 25.062805c1.6157379 6.28006 3.231781 9.823273 5.009247 12.617584c1.7774658 2.794342 1.2660217 2.3334045 5.655548 4.148407c4.3895264 1.8150024 16.103775 5.589264 20.681595 6.7416077c4.57782 1.1523438 4.388672 0.86380005 6.785309 0.1723938c2.3966217 -0.69140625 5.6286926 -2.4483337 7.594452 -4.320801c1.965744 -1.872467 3.0692139 -2.2181702 4.2000885 -6.9140015c1.1308899 -4.6958313 2.396637 -12.301514 2.585205 -21.260986c0.18858337 -8.959473 -1.1846008 -25.92752 -1.4537506 -32.49582c-0.26914978 -6.5682983 -0.726593 -5.6464233 -0.16114807 -6.9140015c0.56544495 -1.2675476 -0.8894348 0.6336365 3.5538025 -0.69137573c4.4432373 -1.3250427 12.387695 -3.5138855 23.105652 -7.258789c10.717941 -3.744934 31.938416 -11.494629 41.202057 -15.210815c9.263611 -3.7161865 9.371063 -3.744629 14.37973 -7.0863953c5.0086975 -3.3417664 9.963379 -6.539856 15.672363 -12.964203c5.7089844 -6.424347 12.845428 -15.786957 18.581543 -25.581787c5.7361145 -9.794861 11.795685 -23.305573 15.835205 -33.18721c4.0395203 -9.881638 6.3552856 -19.793213 8.401886 -26.102615c2.0466309 -6.3094177 1.6697693 -11.005249 3.8778076 -11.753799c2.2080383 -0.7485657 7.9701843 3.7763824 9.370514 7.2624207c1.4002991 3.486023 0.16226196 7.258484 -0.9686279 13.653778c-1.1308594 6.3953094 -4.308655 18.754913 -5.816681 24.718002c-1.5080261 5.9631042 -3.9315186 8.583221 -3.2315063 11.060593c0.7000122 2.4773712 2.368927 2.1903534 7.43161 3.8036041c5.062683 1.6132812 15.835205 5.0403137 22.944489 5.876007c7.109314 0.83566284 14.891205 -0.31484985 19.711304 -0.8619995c4.820099 -0.54711914 7.2973022 -1.095459 9.209351 -2.420807c1.9120483 -1.3253174 0.99716187 -0.43218994 2.262909 -5.531189c1.2657471 -5.098999 4.30838 -18.177841 5.331543 -25.062805c1.0231628 -6.884964 0.91516113 -10.283585 0.8074646 -16.246994c-0.10772705 -5.963394 -0.02658081 -12.273712 -1.4537659 -19.533401c-1.427185 -7.2597046 -3.635498 -16.188934 -7.109314 -24.024796c-3.4737854 -7.835861 -8.8324585 -16.076416 -13.733429 -22.990417c-4.9009705 -6.913986 -11.013672 -14.143753 -15.672363 -18.493576c-4.658661 -4.3498383 -9.18277 -6.827507 -12.279694 -7.6054077c-3.0969238 -0.7779007 -3.5012207 0.7198334 -6.3018494 2.937996c-2.8006287 2.2181702 1.5623169 7.518898 -10.501953 10.37101c-12.06427 2.8520966 -44.810425 9.363525 -61.883636 6.7415924c-17.073242 -2.621933 -32.342438 -16.768715 -40.555756 -22.47322c-8.213333 -5.7044983 -6.785309 -8.815804 -8.724213 -11.753799c-1.9388885 -2.937996 -0.7008667 -5.2408447 -2.909195 -5.874176z" fill-rule="evenodd"/><path fill="#434343" d="m239.91638 103.97867c-0.40400696 -1.2675629 -0.055130005 -1.7287979 -0.1628418 -3.9760056c-0.10772705 -2.2472 -0.51060486 -5.358803 -0.48345947 -9.507202c0.027145386 -4.1483994 -0.16143799 -9.319077 0.64630127 -15.383194c0.80773926 -6.0641174 3.015213 -16.190437 4.2001038 -21.001503c1.1848755 -4.8110657 1.6165924 -4.8688354 2.909195 -7.8649025c1.2926025 -2.996067 3.6213684 -7.835865 4.846405 -10.111496c1.2250214 -2.2756348 1.6151886 -2.7643929 2.503769 -3.5422935c0.8885956 -0.7778988 0.79444885 -0.7794113 2.8277893 -1.1251106c2.0333252 -0.34570122 5.5480957 -0.8196392 9.372192 -0.94908714c3.8240662 -0.12944984 9.479065 -0.08680344 13.572296 0.1723957c4.093231 0.25919914 7.7287292 0.489666 10.987091 1.382801c3.2583618 0.89313126 6.0855713 2.6509705 8.563049 3.9760017c2.4775085 1.3250313 4.0129395 2.3034592 6.3018494 3.9741898c2.28891 1.6707306 5.358124 4.235203 7.43161 6.050205c2.0734863 1.8149986 3.3934937 3.1687622 5.009247 4.839798c1.6157532 1.6710358 3.069519 3.2561722 4.6852417 5.186409c1.6157532 1.930233 3.5549316 4.4937973 5.009247 6.3949966c1.4543457 1.9011955 2.2894897 2.7940254 3.7166748 5.0121956c1.4271545 2.2181625 2.9614868 4.839798 4.846405 8.296799c1.8848877 3.4570007 5.197235 9.449135 6.462982 12.445198c1.2657471 2.9960709 1.0774536 3.1687698 1.1314392 5.531204c0.054016113 2.3624344 -0.2420044 5.503372 -0.8074341 8.643402c-0.5654297 3.1400375 -1.6966248 7.1719894 -2.585205 10.196793c-0.8885803 3.0247955 -1.6691895 5.3016434 -2.746338 7.9520035c-1.077179 2.6503677 -2.6394958 5.9337616 -3.7166748 7.9501953c-1.0771484 2.0164337 -0.91516113 3.14003 -2.746338 4.148407c-1.8311768 1.0083618 -5.251526 1.5560913 -8.240753 1.9017944c-2.9891968 0.34570312 -6.4361267 0.2011261 -9.694489 0.1723938c-3.2583618 -0.0287323 -6.7318726 -0.08558655 -9.855652 -0.3447876c-3.1237793 -0.25920105 -5.763275 -0.63423157 -8.887054 -1.2104034c-3.1237793 -0.5761719 -6.1664124 -1.2095032 -9.855652 -2.2465973c-3.689209 -1.0370941 -8.644196 -2.621933 -12.279694 -3.9760056c-3.635498 -1.354065 -6.490143 -2.5928955 -9.533356 -4.1483994c-3.043213 -1.5554962 -6.0329895 -3.4560928 -8.725891 -5.184593c-2.6929169 -1.7285004 -5.358139 -3.5153732 -7.43161 -5.1864014c-2.073471 -1.6710358 -3.7975006 -3.4282684 -5.009247 -4.8398056c-1.2117462 -1.4115295 -1.857193 -2.361824 -2.2612 -3.6293945z" fill-rule="evenodd"/><path fill="#ffffff" d="m239.59157 99.31073c0.16143799 -0.23046875 -0.9157257 3.7161942 0.64630127 6.222595c1.5620422 2.506401 5.548111 6.251938 8.725906 8.815804c3.1777802 2.5638657 6.5978546 4.4931946 10.34079 6.567398c3.7429504 2.0741959 7.5658875 4.062805 12.116852 5.8778076c4.5509644 1.8149948 10.045349 3.715889 15.188904 5.0121994c5.1435547 1.2962952 10.475098 2.218155 15.672363 2.7655945c5.197235 0.5474396 10.394501 0.80693054 15.5112 0.5189972c5.1166687 -0.28793335 10.853363 -1.3534546 15.188873 -2.2465973c4.335541 -0.89312744 7.3773193 -1.7868652 10.82428 -3.1121979c3.44693 -1.3253326 6.490967 -3.0248032 9.85733 -4.8398056c3.3663635 -1.8149948 8.078766 -4.55217 10.34079 -6.0502014c2.2620544 -1.4980316 2.6392212 -1.958664 3.2315063 -2.937996c0.5923157 -0.979332 0.2685852 -2.8227615 0.32229614 -2.937996c0.053741455 -0.115234375 -0.026855469 0.7198334 0 2.2465973c0.026885986 1.5267639 0.5380249 4.4363327 0.16116333 6.9140015c-0.37686157 2.4776688 -1.5606079 5.647339 -2.4223633 7.9520035c-0.86172485 2.3046722 -1.4014282 3.9170227 -2.7480469 5.875992c-1.3465881 1.9589691 -3.0157776 3.8901062 -5.331543 5.8778076c-2.3157654 1.9877014 -4.8469543 4.1471863 -8.563049 6.0483856c-3.716095 1.9011993 -8.913055 4.033478 -13.733459 5.3588104c-4.8203735 1.3253326 -11.230225 2.0745087 -15.188904 2.5932007c-3.9586487 0.5187073 -5.2506714 0.57676697 -8.563049 0.51901245c-3.3123474 -0.057769775 -7.110138 -0.34692383 -11.311096 -0.86561584c-4.2009277 -0.5187073 -9.505341 -1.267273 -13.894592 -2.2465973c-4.3892517 -0.9793396 -9.155334 -2.5348358 -12.440857 -3.6293945c-3.285492 -1.094574 -4.5520935 -1.6704254 -7.2721252 -2.9380035c-2.7200623 -1.2675629 -6.3015747 -2.9963684 -9.048218 -4.667404c-2.7466278 -1.6710358 -5.2772675 -3.1406403 -7.431595 -5.358795c-2.1543427 -2.2181702 -4.0132294 -4.6371613 -5.4944 -7.9501953c-1.4811707 -3.313034 -2.5580597 -8.298012 -3.3926544 -11.928009c-0.8345947 -3.630005 -1.3994598 -6.942436 -1.6148987 -9.851997c-0.21543884 -2.9095688 0.16087341 -7.374939 0.32229614 -7.6054z" fill-rule="evenodd"/><path stroke="#000000" stroke-width="3.0" stroke-linejoin="round" stroke-linecap="butt" d="m239.59157 99.31073c0.16143799 -0.23046875 -0.9157257 3.7161942 0.64630127 6.222595c1.5620422 2.506401 5.548111 6.251938 8.725906 8.815804c3.1777802 2.5638657 6.5978546 4.4931946 10.34079 6.567398c3.7429504 2.0741959 7.5658875 4.062805 12.116852 5.8778076c4.5509644 1.8149948 10.045349 3.715889 15.188904 5.0121994c5.1435547 1.2962952 10.475098 2.218155 15.672363 2.7655945c5.197235 0.5474396 10.394501 0.80693054 15.5112 0.5189972c5.1166687 -0.28793335 10.853363 -1.3534546 15.188873 -2.2465973c4.335541 -0.89312744 7.3773193 -1.7868652 10.82428 -3.1121979c3.44693 -1.3253326 6.490967 -3.0248032 9.85733 -4.8398056c3.3663635 -1.8149948 8.078766 -4.55217 10.34079 -6.0502014c2.2620544 -1.4980316 2.6392212 -1.958664 3.2315063 -2.937996c0.5923157 -0.979332 0.2685852 -2.8227615 0.32229614 -2.937996c0.053741455 -0.115234375 -0.026855469 0.7198334 0 2.2465973c0.026885986 1.5267639 0.5380249 4.4363327 0.16116333 6.9140015c-0.37686157 2.4776688 -1.5606079 5.647339 -2.4223633 7.9520035c-0.86172485 2.3046722 -1.4014282 3.9170227 -2.7480469 5.875992c-1.3465881 1.9589691 -3.0157776 3.8901062 -5.331543 5.8778076c-2.3157654 1.9877014 -4.8469543 4.1471863 -8.563049 6.0483856c-3.716095 1.9011993 -8.913055 4.033478 -13.733459 5.3588104c-4.8203735 1.3253326 -11.230225 2.0745087 -15.188904 2.5932007c-3.9586487 0.5187073 -5.2506714 0.57676697 -8.563049 0.51901245c-3.3123474 -0.057769775 -7.110138 -0.34692383 -11.311096 -0.86561584c-4.2009277 -0.5187073 -9.505341 -1.267273 -13.894592 -2.2465973c-4.3892517 -0.9793396 -9.155334 -2.5348358 -12.440857 -3.6293945c-3.285492 -1.094574 -4.5520935 -1.6704254 -7.2721252 -2.9380035c-2.7200623 -1.2675629 -6.3015747 -2.9963684 -9.048218 -4.667404c-2.7466278 -1.6710358 -5.2772675 -3.1406403 -7.431595 -5.358795c-2.1543427 -2.2181702 -4.0132294 -4.6371613 -5.4944 -7.9501953c-1.4811707 -3.313034 -2.5580597 -8.298012 -3.3926544 -11.928009c-0.8345947 -3.630005 -1.3994598 -6.942436 -1.6148987 -9.851997c-0.21543884 -2.9095688 0.16087341 -7.374939 0.32229614 -7.6054z" fill-rule="evenodd"/><path fill="#99badd" d="m254.53835 31.7274c0.8481598 0.0574646 2.9346466 -0.6045971 5.088974 -0.86379814c2.1543274 -0.25919914 4.969116 -0.57616615 7.837036 -0.6913986c2.86792 -0.115234375 5.5735474 -0.2882347 9.370483 0c3.796936 0.2882347 9.317932 0.60580635 13.411163 1.7294064c4.093231 1.1236019 7.9031677 3.2117138 11.148254 5.0121975c3.2450562 1.8004837 5.4811096 3.5147667 8.322174 5.790703c2.8410645 2.2759323 5.9506836 5.041836 8.724182 7.8648987c2.7734985 2.8230667 5.398834 5.818226 7.916748 9.073494c2.5179138 3.2552643 4.7938232 6.482403 7.190735 10.458103c2.3969116 3.9757004 5.52124 10.068855 7.190735 13.396103c1.6694641 3.3272476 2.2069092 4.925392 2.8260803 6.5673904c0.6191406 1.6419983 0.7675781 2.0457687 0.888855 3.284607c0.121276855 1.2388306 0.05429077 2.3479156 -0.16113281 4.1483994c-0.2154541 1.8004837 -0.24285889 3.2120132 -1.1314697 6.6544952c-0.8885803 3.442482 -2.84021 10.168968 -4.2001038 14.000397c-1.3598633 3.8314362 -2.9761963 6.8274994 -3.9592285 8.988205c-0.9830017 2.160698 -1.3870239 2.9963608 -1.9388733 3.9760056c-0.5518799 0.9796295 -1.6282043 1.685852 -1.372345 1.9017944c0.25585938 0.21595764 1.0630493 -0.029937744 2.9075012 -0.6061096c1.8444824 -0.5761566 4.6182556 -1.3673706 8.159332 -2.850891c3.5410767 -1.4835052 9.842072 -4.451149 13.087158 -6.0502014c3.2450562 -1.5990524 4.5520935 -2.4205017 6.3832703 -3.5441055c1.8311768 -1.1235962 3.6612244 -1.9731827 4.603821 -3.1974945c0.94259644 -1.2243195 0.44555664 -1.9734879 1.0517273 -4.1483994c0.60614014 -2.1749191 1.7774658 -5.876297 2.585205 -8.901093c0.80770874 -3.0248032 1.6688843 -5.862686 2.2612 -9.247704c0.59228516 -3.3850174 1.1444397 -6.8274994 1.2926025 -11.062401c0.14813232 -4.2349014 0.013549805 -10.3858185 -0.40374756 -14.347008c-0.41729736 -3.9611816 -0.67285156 -5.1277275 -2.1000366 -9.420094c-1.427185 -4.292366 -3.9182434 -11.263832 -6.4630127 -16.334099c-2.5447693 -5.0702667 -4.7528076 -9.636654 -8.805603 -14.087503c-4.052826 -4.4508495 -10.205963 -9.304562 -15.5112 -12.617596c-5.3052673 -3.313034 -11.217255 -5.777092 -16.320374 -7.2606077c-5.1030884 -1.4835153 -8.87204 -1.4677882 -14.298309 -1.6404867c-5.4262695 -0.17269897 -12.752136 -0.21655416 -18.259247 0.6042948c-5.5071106 0.82084846 -10.057526 2.1168451 -14.783478 4.320796c-4.725952 2.203951 -10.004089 6.0653267 -13.572296 8.902908c-3.5682373 2.8375835 -6.34256 6.6245556 -7.837036 8.122589c-1.494461 1.4980335 -0.941452 0.5199108 -1.1297455 0.86561203c-0.18829346 0.3456993 -0.8481598 1.151123 0 1.2085896z" fill-rule="evenodd"/><path stroke="#000000" stroke-width="3.0" stroke-linejoin="round" stroke-linecap="butt" d="m254.53835 31.7274c0.8481598 0.0574646 2.9346466 -0.6045971 5.088974 -0.86379814c2.1543274 -0.25919914 4.969116 -0.57616615 7.837036 -0.6913986c2.86792 -0.115234375 5.5735474 -0.2882347 9.370483 0c3.796936 0.2882347 9.317932 0.60580635 13.411163 1.7294064c4.093231 1.1236019 7.9031677 3.2117138 11.148254 5.0121975c3.2450562 1.8004837 5.4811096 3.5147667 8.322174 5.790703c2.8410645 2.2759323 5.9506836 5.041836 8.724182 7.8648987c2.7734985 2.8230667 5.398834 5.818226 7.916748 9.073494c2.5179138 3.2552643 4.7938232 6.482403 7.190735 10.458103c2.3969116 3.9757004 5.52124 10.068855 7.190735 13.396103c1.6694641 3.3272476 2.2069092 4.925392 2.8260803 6.5673904c0.6191406 1.6419983 0.7675781 2.0457687 0.888855 3.284607c0.121276855 1.2388306 0.05429077 2.3479156 -0.16113281 4.1483994c-0.2154541 1.8004837 -0.24285889 3.2120132 -1.1314697 6.6544952c-0.8885803 3.442482 -2.84021 10.168968 -4.2001038 14.000397c-1.3598633 3.8314362 -2.9761963 6.8274994 -3.9592285 8.988205c-0.9830017 2.160698 -1.3870239 2.9963608 -1.9388733 3.9760056c-0.5518799 0.9796295 -1.6282043 1.685852 -1.372345 1.9017944c0.25585938 0.21595764 1.0630493 -0.029937744 2.9075012 -0.6061096c1.8444824 -0.5761566 4.6182556 -1.3673706 8.159332 -2.850891c3.5410767 -1.4835052 9.842072 -4.451149 13.087158 -6.0502014c3.2450562 -1.5990524 4.5520935 -2.4205017 6.3832703 -3.5441055c1.8311768 -1.1235962 3.6612244 -1.9731827 4.603821 -3.1974945c0.94259644 -1.2243195 0.44555664 -1.9734879 1.0517273 -4.1483994c0.60614014 -2.1749191 1.7774658 -5.876297 2.585205 -8.901093c0.80770874 -3.0248032 1.6688843 -5.862686 2.2612 -9.247704c0.59228516 -3.3850174 1.1444397 -6.8274994 1.2926025 -11.062401c0.14813232 -4.2349014 0.013549805 -10.3858185 -0.40374756 -14.347008c-0.41729736 -3.9611816 -0.67285156 -5.1277275 -2.1000366 -9.420094c-1.427185 -4.292366 -3.9182434 -11.263832 -6.4630127 -16.334099c-2.5447693 -5.0702667 -4.7528076 -9.636654 -8.805603 -14.087503c-4.052826 -4.4508495 -10.205963 -9.304562 -15.5112 -12.617596c-5.3052673 -3.313034 -11.217255 -5.777092 -16.320374 -7.2606077c-5.1030884 -1.4835153 -8.87204 -1.4677882 -14.298309 -1.6404867c-5.4262695 -0.17269897 -12.752136 -0.21655416 -18.259247 0.6042948c-5.5071106 0.82084846 -10.057526 2.1168451 -14.783478 4.320796c-4.725952 2.203951 -10.004089 6.0653267 -13.572296 8.902908c-3.5682373 2.8375835 -6.34256 6.6245556 -7.837036 8.122589c-1.494461 1.4980335 -0.941452 0.5199108 -1.1297455 0.86561203c-0.18829346 0.3456993 -0.8481598 1.151123 0 1.2085896z" fill-rule="evenodd"/><path fill="#000000" d="m411.19305 88.268715c-1.9474792 1.883255 -7.394104 6.346443 -11.289734 9.377922c-3.8956604 3.0314713 -9.2778015 7.003189 -12.084137 8.810921c-2.806305 1.8077393 -5.94223 3.1085815 -4.753784 2.0354843c1.188446 -1.0730972 8.203369 -5.724495 11.884491 -8.474052c3.6810913 -2.7495575 7.7261047 -6.045944 10.202148 -8.023308c2.4760132 -1.977356 3.5812683 -2.8994064 4.653961 -3.8408356c1.0726929 -0.94142914 1.5509949 -1.8267136 1.7821655 -1.8077393c0.23117065 0.018981934 1.5523682 0.038352966 -0.39511108 1.921608z" fill-rule="evenodd"/><path fill="#ffffff" d="m241.0763 171.576c-1.9239197 3.6363525 -5.862793 12.4987335 -8.228882 17.072678c-2.3660889 4.5739594 -5.3914948 7.8004913 -5.9676666 10.371002c-0.57618713 2.5705261 1.3084259 3.6191254 2.510559 5.052124c1.2021332 1.4330139 2.073471 1.615387 4.7022095 3.5459137c2.6287384 1.930542 6.1209106 4.9668427 11.070221 8.037308c4.9493103 3.070465 13.042496 7.5812073 18.625656 10.385513c5.5831604 2.8043213 11.335693 5.7719574 14.873383 6.4403687c3.5376892 0.66841125 4.449463 -0.53533936 6.352722 -2.4298859c1.9032898 -1.8945465 2.6101074 -4.0119934 5.066925 -8.937393c2.4568481 -4.9253845 8.23114 -15.919128 9.674164 -20.61496c1.4429932 -4.6958313 0.1232605 -5.2003174 -1.0161133 -7.5600433c-1.1393433 -2.3597107 -3.783081 -4.634735 -5.820099 -6.598236c-2.0369873 -1.963501 -3.83255 -3.3644562 -6.4019165 -5.182785c-2.5693665 -1.8183136 -5.4149475 -3.7933197 -9.014282 -5.727188c-3.5993042 -1.9338531 -8.027863 -4.2832794 -12.5816345 -5.875992c-4.5538025 -1.5926971 -11.319305 -3.2262268 -14.741074 -3.6802063c-3.4217682 -0.4539795 -4.2722015 0.0060577393 -5.789566 0.9563446c-1.5173492 0.9503021 -1.3907013 1.1090851 -3.3146057 4.7454376z" fill-rule="evenodd"/><path stroke="#000000" stroke-width="2.0" stroke-linejoin="round" stroke-linecap="butt" d="m241.0763 171.576c-1.9239197 3.6363525 -5.862793 12.4987335 -8.228882 17.072678c-2.3660889 4.5739594 -5.3914948 7.8004913 -5.9676666 10.371002c-0.57618713 2.5705261 1.3084259 3.6191254 2.510559 5.052124c1.2021332 1.4330139 2.073471 1.615387 4.7022095 3.5459137c2.6287384 1.930542 6.1209106 4.9668427 11.070221 8.037308c4.9493103 3.070465 13.042496 7.5812073 18.625656 10.385513c5.5831604 2.8043213 11.335693 5.7719574 14.873383 6.4403687c3.5376892 0.66841125 4.449463 -0.53533936 6.352722 -2.4298859c1.9032898 -1.8945465 2.6101074 -4.0119934 5.066925 -8.937393c2.4568481 -4.9253845 8.23114 -15.919128 9.674164 -20.61496c1.4429932 -4.6958313 0.1232605 -5.2003174 -1.0161133 -7.5600433c-1.1393433 -2.3597107 -3.783081 -4.634735 -5.820099 -6.598236c-2.0369873 -1.963501 -3.83255 -3.3644562 -6.4019165 -5.182785c-2.5693665 -1.8183136 -5.4149475 -3.7933197 -9.014282 -5.727188c-3.5993042 -1.9338531 -8.027863 -4.2832794 -12.5816345 -5.875992c-4.5538025 -1.5926971 -11.319305 -3.2262268 -14.741074 -3.6802063c-3.4217682 -0.4539795 -4.2722015 0.0060577393 -5.789566 0.9563446c-1.5173492 0.9503021 -1.3907013 1.1090851 -3.3146057 4.7454376z" fill-rule="evenodd"/><path fill="#000000" d="m187.02406 114.16499c-1.2900085 0.4951477 -2.5793 2.0947876 -3.6657715 3.4280548c-1.0864716 1.3332596 -1.9024048 2.171379 -2.8530579 4.571533c-0.95066833 2.4001617 -2.3757782 6.5911407 -2.850937 9.829407c-0.47514343 3.238266 -0.13580322 9.752609 0 9.60022c0.13581848 -0.15237427 0 -6.895294 0.8148651 -10.514526c0.81484985 -3.6192322 2.8519897 -8.762711 4.07428 -11.200867c1.2222748 -2.4381561 1.8335876 -2.551941 3.2594147 -3.4280548c1.4258118 -0.87610626 5.0919495 -1.4476547 5.2954865 -1.8286133c0.20353699 -0.38095856 -2.7842712 -0.952301 -4.07428 -0.45715332z" fill-rule="evenodd"/><path stroke="#000000" stroke-width="1.0" stroke-linejoin="round" stroke-linecap="butt" d="m187.02406 114.16499c-1.2900085 0.4951477 -2.5793 2.0947876 -3.6657715 3.4280548c-1.0864716 1.3332596 -1.9024048 2.171379 -2.8530579 4.571533c-0.95066833 2.4001617 -2.3757782 6.5911407 -2.850937 9.829407c-0.47514343 3.238266 -0.13580322 9.752609 0 9.60022c0.13581848 -0.15237427 0 -6.895294 0.8148651 -10.514526c0.81484985 -3.6192322 2.8519897 -8.762711 4.07428 -11.200867c1.2222748 -2.4381561 1.8335876 -2.551941 3.2594147 -3.4280548c1.4258118 -0.87610626 5.0919495 -1.4476547 5.2954865 -1.8286133c0.20353699 -0.38095856 -2.7842712 -0.952301 -4.07428 -0.45715332z" fill-rule="evenodd"/><path fill="#000000" d="m223.36365 174.81439c0.51135254 -1.2047119 1.6161041 -5.1537933 2.4173431 -8.773773c0.801239 -3.6199799 1.770752 -8.959122 2.390091 -12.946106c0.61935425 -3.9869843 1.5188751 -11.244766 1.326004 -10.975815c-0.19288635 0.26896667 -1.6406097 8.307999 -2.4832458 12.589554c-0.8426361 4.28154 -1.8557434 10.006302 -2.5725708 13.099747c-0.71684265 3.0934296 -1.5488129 4.293167 -1.7284241 5.4608917c-0.17959595 1.1677399 0.13943481 2.7502136 0.6508026 1.5455017z" fill-rule="evenodd"/><path stroke="#000000" stroke-width="1.0" stroke-linejoin="round" stroke-linecap="butt" d="m223.36365 174.81439c0.51135254 -1.2047119 1.6161041 -5.1537933 2.4173431 -8.773773c0.801239 -3.6199799 1.770752 -8.959122 2.390091 -12.946106c0.61935425 -3.9869843 1.5188751 -11.244766 1.326004 -10.975815c-0.19288635 0.26896667 -1.6406097 8.307999 -2.4832458 12.589554c-0.8426361 4.28154 -1.8557434 10.006302 -2.5725708 13.099747c-0.71684265 3.0934296 -1.5488129 4.293167 -1.7284241 5.4608917c-0.17959595 1.1677399 0.13943481 2.7502136 0.6508026 1.5455017z" fill-rule="evenodd"/><path fill="#000000" d="m122.92051 277.1398c-0.05908203 -1.1212769 -0.48754883 -4.253296 -0.97509766 -6.263672c-0.4875412 -2.0103455 -0.9605179 -3.6915588 -1.9501877 -5.7984924c-0.9896698 -2.106964 -2.5920334 -4.813629 -3.9878387 -6.843292c-1.395813 -2.0296326 -3.2422562 -4.0781403 -4.387001 -5.334564c-1.1447449 -1.256424 -2.6514282 -2.5710907 -2.4814682 -2.2039642c0.16996002 0.36712646 2.1644974 2.6573334 3.5012207 4.406708c1.3367233 1.7493744 3.1972885 3.8472137 4.5191193 6.0895233c1.3218384 2.24234 2.55513 4.6291504 3.4119034 7.364441c0.856781 2.73526 1.3371964 7.6166687 1.7287521 9.047241c0.3915558 1.430542 0.6796799 0.6573181 0.62059784 -0.46392822z" fill-rule="evenodd"/><path stroke="#000000" stroke-width="1.0" stroke-linejoin="round" stroke-linecap="butt" d="m122.92051 277.1398c-0.05908203 -1.1212769 -0.48754883 -4.253296 -0.97509766 -6.263672c-0.4875412 -2.0103455 -0.9605179 -3.6915588 -1.9501877 -5.7984924c-0.9896698 -2.106964 -2.5920334 -4.813629 -3.9878387 -6.843292c-1.395813 -2.0296326 -3.2422562 -4.0781403 -4.387001 -5.334564c-1.1447449 -1.256424 -2.6514282 -2.5710907 -2.4814682 -2.2039642c0.16996002 0.36712646 2.1644974 2.6573334 3.5012207 4.406708c1.3367233 1.7493744 3.1972885 3.8472137 4.5191193 6.0895233c1.3218384 2.24234 2.55513 4.6291504 3.4119034 7.364441c0.856781 2.73526 1.3371964 7.6166687 1.7287521 9.047241c0.3915558 1.430542 0.6796799 0.6573181 0.62059784 -0.46392822z" fill-rule="evenodd"/><path fill="#000000" d="m178.43657 282.27194c1.252182 -0.24499512 4.3219604 -2.03125 6.8667297 -3.7164917c2.5447693 -1.6852722 5.7762756 -4.3498535 8.401901 -6.3950195c2.6256256 -2.045166 5.641983 -4.3492126 7.351883 -5.8759766c1.7098846 -1.5267639 3.2575073 -3.4140625 2.9075012 -3.284607c-0.35002136 0.12945557 -2.6245117 2.2175598 -5.007553 4.06131c-2.3830566 1.8437195 -6.503433 5.0421143 -9.290787 7.0010986c-2.7873383 1.9589539 -5.453964 3.75885 -7.4332886 4.7526855c-1.9793396 0.99383545 -3.8099518 0.6342468 -4.4426727 1.2104187c-0.6327362 0.57614136 -0.60588074 2.4915771 0.646286 2.246582z" fill-rule="evenodd"/><path stroke="#000000" stroke-width="1.0" stroke-linejoin="round" stroke-linecap="butt" d="m178.43657 282.27194c1.252182 -0.24499512 4.3219604 -2.03125 6.8667297 -3.7164917c2.5447693 -1.6852722 5.7762756 -4.3498535 8.401901 -6.3950195c2.6256256 -2.045166 5.641983 -4.3492126 7.351883 -5.8759766c1.7098846 -1.5267639 3.2575073 -3.4140625 2.9075012 -3.284607c-0.35002136 0.12945557 -2.6245117 2.2175598 -5.007553 4.06131c-2.3830566 1.8437195 -6.503433 5.0421143 -9.290787 7.0010986c-2.7873383 1.9589539 -5.453964 3.75885 -7.4332886 4.7526855c-1.9793396 0.99383545 -3.8099518 0.6342468 -4.4426727 1.2104187c-0.6327362 0.57614136 -0.60588074 2.4915771 0.646286 2.246582z" fill-rule="evenodd"/><path fill="#000000" d="m180.29465 217.7022c0.20977783 0.65237427 2.0850677 1.9861908 2.953308 3.2337952c0.8682251 1.2476044 1.6485443 2.890808 2.2561035 4.251831c0.60757446 1.361023 0.92619324 2.3829956 1.3892975 3.9143066c0.463089 1.5312958 0.92619324 3.7137756 1.3892822 5.273514c0.46310425 1.5597382 1.2533112 4.153839 1.3892975 4.0848846c0.13598633 -0.06895447 -0.24908447 -2.8124847 -0.57336426 -4.498642c-0.3242798 -1.6861572 -0.80688477 -3.7313232 -1.3723297 -5.6183014c-0.5654297 -1.8869781 -1.3872986 -4.2055664 -2.0203094 -5.703598c-0.6330261 -1.4980316 -1.1583099 -2.3482208 -1.7777557 -3.284607c-0.6194458 -0.9363861 -1.333313 -2.0581665 -1.9389038 -2.3336945c-0.6055908 -0.27552795 -1.9044037 0.028121948 -1.6946259 0.6805115z" fill-rule="evenodd"/><path stroke="#000000" stroke-width="1.0" stroke-linejoin="round" stroke-linecap="butt" d="m180.29465 217.7022c0.20977783 0.65237427 2.0850677 1.9861908 2.953308 3.2337952c0.8682251 1.2476044 1.6485443 2.890808 2.2561035 4.251831c0.60757446 1.361023 0.92619324 2.3829956 1.3892975 3.9143066c0.463089 1.5312958 0.92619324 3.7137756 1.3892822 5.273514c0.46310425 1.5597382 1.2533112 4.153839 1.3892975 4.0848846c0.13598633 -0.06895447 -0.24908447 -2.8124847 -0.57336426 -4.498642c-0.3242798 -1.6861572 -0.80688477 -3.7313232 -1.3723297 -5.6183014c-0.5654297 -1.8869781 -1.3872986 -4.2055664 -2.0203094 -5.703598c-0.6330261 -1.4980316 -1.1583099 -2.3482208 -1.7777557 -3.284607c-0.6194458 -0.9363861 -1.333313 -2.0581665 -1.9389038 -2.3336945c-0.6055908 -0.27552795 -1.9044037 0.028121948 -1.6946259 0.6805115z" fill-rule="evenodd"/><path fill="#000000" d="m212.98497 265.69263c0.08566284 0.13217163 1.7203674 -0.039642334 4.067795 -0.2722168c2.3474274 -0.23257446 6.192993 -0.921875 10.0168 -1.123291c3.8238068 -0.20144653 8.199753 -0.25830078 12.925995 -0.08529663c4.7262573 0.17300415 10.7456665 0.28793335 15.431473 1.123291c4.6858215 0.8353882 9.075073 2.448639 12.683441 3.888916c3.608368 1.4402466 6.4488525 3.2546387 8.966766 4.7526855c2.5179138 1.4980469 4.0315857 2.5732422 6.140686 4.235504c2.1091003 1.662262 5.576111 5.1092834 6.513916 5.7380676c0.93777466 0.6288147 0.17160034 -0.835968 -0.88720703 -1.9653015c-1.0587769 -1.129364 -3.0822144 -2.995758 -5.4655457 -4.8107605c-2.3833313 -1.8150024 -5.773163 -4.397339 -8.834473 -6.079254c-3.0612793 -1.6819153 -5.938263 -2.8251648 -9.533325 -4.0122986c-3.5950928 -1.1871033 -7.728485 -2.4552917 -12.03714 -3.110382c-4.30867 -0.65512085 -9.331207 -0.6835327 -13.81488 -0.82025146c-4.483673 -0.13671875 -9.317062 -0.24588013 -13.087143 0c-3.7700806 0.24588013 -7.3521576 1.0519104 -9.533356 1.4753418c-2.1811829 0.4234314 -3.6394653 0.93307495 -3.5538025 1.0652466z" fill-rule="evenodd"/><path stroke="#000000" stroke-width="1.0" stroke-linejoin="round" stroke-linecap="butt" d="m212.98497 265.69263c0.08566284 0.13217163 1.7203674 -0.039642334 4.067795 -0.2722168c2.3474274 -0.23257446 6.192993 -0.921875 10.0168 -1.123291c3.8238068 -0.20144653 8.199753 -0.25830078 12.925995 -0.08529663c4.7262573 0.17300415 10.7456665 0.28793335 15.431473 1.123291c4.6858215 0.8353882 9.075073 2.448639 12.683441 3.888916c3.608368 1.4402466 6.4488525 3.2546387 8.966766 4.7526855c2.5179138 1.4980469 4.0315857 2.5732422 6.140686 4.235504c2.1091003 1.662262 5.576111 5.1092834 6.513916 5.7380676c0.93777466 0.6288147 0.17160034 -0.835968 -0.88720703 -1.9653015c-1.0587769 -1.129364 -3.0822144 -2.995758 -5.4655457 -4.8107605c-2.3833313 -1.8150024 -5.773163 -4.397339 -8.834473 -6.079254c-3.0612793 -1.6819153 -5.938263 -2.8251648 -9.533325 -4.0122986c-3.5950928 -1.1871033 -7.728485 -2.4552917 -12.03714 -3.110382c-4.30867 -0.65512085 -9.331207 -0.6835327 -13.81488 -0.82025146c-4.483673 -0.13671875 -9.317062 -0.24588013 -13.087143 0c-3.7700806 0.24588013 -7.3521576 1.0519104 -9.533356 1.4753418c-2.1811829 0.4234314 -3.6394653 0.93307495 -3.5538025 1.0652466z" fill-rule="evenodd"/><path fill="#000000" d="m205.99547 337.92526c-2.5520782 -0.45959473 -10.668228 -2.579071 -14.235016 -3.6622925c-3.5667725 -1.083252 -5.006851 -1.7757263 -7.16568 -2.8371582c-2.1588287 -1.0614319 -4.2894745 -2.3805847 -5.7872925 -3.531372c-1.4978027 -1.1507874 -3.476715 -3.32193 -3.1995392 -3.3733215c0.27716064 -0.05142212 3.0210266 1.9569397 4.8625183 3.064911c1.841507 1.1079407 3.5629578 2.432251 6.186432 3.5827942c2.6234894 1.1505432 6.4645844 2.4580078 9.554489 3.320465c3.0898895 0.8624573 7.174652 1.4324341 8.984909 1.8543091c1.810257 0.42184448 1.743454 0.41323853 1.876648 0.67684937c0.13319397 0.26361084 1.4746094 1.3644104 -1.0774689 0.9048157z" fill-rule="evenodd"/><path stroke="#000000" stroke-width="1.0" stroke-linejoin="round" stroke-linecap="butt" d="m205.99547 337.92526c-2.5520782 -0.45959473 -10.668228 -2.579071 -14.235016 -3.6622925c-3.5667725 -1.083252 -5.006851 -1.7757263 -7.16568 -2.8371582c-2.1588287 -1.0614319 -4.2894745 -2.3805847 -5.7872925 -3.531372c-1.4978027 -1.1507874 -3.476715 -3.32193 -3.1995392 -3.3733215c0.27716064 -0.05142212 3.0210266 1.9569397 4.8625183 3.064911c1.841507 1.1079407 3.5629578 2.432251 6.186432 3.5827942c2.6234894 1.1505432 6.4645844 2.4580078 9.554489 3.320465c3.0898895 0.8624573 7.174652 1.4324341 8.984909 1.8543091c1.810257 0.42184448 1.743454 0.41323853 1.876648 0.67684937c0.13319397 0.26361084 1.4746094 1.3644104 -1.0774689 0.9048157z" fill-rule="evenodd"/><path fill="#000000" d="m350.18848 197.4037c-0.7808838 -0.590683 -2.0191956 -2.5780945 -3.3926697 -3.8889008c-1.3734436 -1.3108215 -3.137909 -2.621933 -4.8480835 -3.9760132c-1.7101746 -1.354065 -3.692047 -2.955536 -5.412964 -4.1483917c-1.7209473 -1.1928711 -4.8184204 -2.7350616 -4.912567 -3.0087738c-0.09414673 -0.27371216 2.7457886 0.5462189 4.347687 1.3664703c1.6018982 0.8202362 3.4593506 2.2009277 5.2637024 3.5549927c1.8043213 1.354065 3.854309 2.9434357 5.5622253 4.569412c1.7079163 1.6259613 4.119812 4.2645416 4.685272 5.1864014c0.5654297 0.921875 -0.51174927 0.93548584 -1.2926025 0.34480286z" fill-rule="evenodd"/><path stroke="#000000" stroke-width="1.0" stroke-linejoin="round" stroke-linecap="butt" d="m350.18848 197.4037c-0.7808838 -0.590683 -2.0191956 -2.5780945 -3.3926697 -3.8889008c-1.3734436 -1.3108215 -3.137909 -2.621933 -4.8480835 -3.9760132c-1.7101746 -1.354065 -3.692047 -2.955536 -5.412964 -4.1483917c-1.7209473 -1.1928711 -4.8184204 -2.7350616 -4.912567 -3.0087738c-0.09414673 -0.27371216 2.7457886 0.5462189 4.347687 1.3664703c1.6018982 0.8202362 3.4593506 2.2009277 5.2637024 3.5549927c1.8043213 1.354065 3.854309 2.9434357 5.5622253 4.569412c1.7079163 1.6259613 4.119812 4.2645416 4.685272 5.1864014c0.5654297 0.921875 -0.51174927 0.93548584 -1.2926025 0.34480286z" fill-rule="evenodd"/><path fill="#000000" d="m408.08542 168.02177c-0.89508057 1.2155457 -2.9897766 3.798462 -4.7751465 5.908661c-1.7854004 2.1101837 -4.269104 4.8688354 -5.937134 6.752487c-1.6680603 1.883667 -2.833435 3.2498322 -4.0711975 4.5494537c-1.2377319 1.2996216 -1.9018555 1.9807434 -3.3553162 3.2483063c-1.4534912 1.2675629 -3.9417114 3.3057709 -5.3654785 4.357086c-1.4237976 1.0513153 -2.355072 1.524353 -3.1772156 1.9508057c-0.8221741 0.42645264 -2.1464233 1.0256042 -1.7557068 0.6079254c0.39071655 -0.41767883 2.7802734 -2.0666351 4.100006 -3.114029c1.3197632 -1.0473785 2.5444946 -2.036087 3.818451 -3.1702728c1.2739258 -1.1341858 2.6086426 -2.395401 3.8251953 -3.634842c1.2165527 -1.2394409 2.342926 -2.5487366 3.4740906 -3.8017883c1.1311646 -1.2530518 2.087616 -2.3479156 3.3129272 -3.716507c1.2253113 -1.368576 2.8404846 -3.0689545 4.0389404 -4.4950104c1.1984558 -1.4260406 2.2227478 -2.9234772 3.151764 -4.0612946c0.9290161 -1.1378174 1.8704834 -2.304657 2.4223633 -2.7655945c0.5518799 -0.4609375 0.8399658 -0.23077393 0.8888855 0c0.04888916 0.23077393 0.29968262 0.16906738 -0.59542847 1.384613z" fill-rule="evenodd"/><path stroke="#000000" stroke-width="1.0" stroke-linejoin="round" stroke-linecap="butt" d="m408.08542 168.02177c-0.89508057 1.2155457 -2.9897766 3.798462 -4.7751465 5.908661c-1.7854004 2.1101837 -4.269104 4.8688354 -5.937134 6.752487c-1.6680603 1.883667 -2.833435 3.2498322 -4.0711975 4.5494537c-1.2377319 1.2996216 -1.9018555 1.9807434 -3.3553162 3.2483063c-1.4534912 1.2675629 -3.9417114 3.3057709 -5.3654785 4.357086c-1.4237976 1.0513153 -2.355072 1.524353 -3.1772156 1.9508057c-0.8221741 0.42645264 -2.1464233 1.0256042 -1.7557068 0.6079254c0.39071655 -0.41767883 2.7802734 -2.0666351 4.100006 -3.114029c1.3197632 -1.0473785 2.5444946 -2.036087 3.818451 -3.1702728c1.2739258 -1.1341858 2.6086426 -2.395401 3.8251953 -3.634842c1.2165527 -1.2394409 2.342926 -2.5487366 3.4740906 -3.8017883c1.1311646 -1.2530518 2.087616 -2.3479156 3.3129272 -3.716507c1.2253113 -1.368576 2.8404846 -3.0689545 4.0389404 -4.4950104c1.1984558 -1.4260406 2.2227478 -2.9234772 3.151764 -4.0612946c0.9290161 -1.1378174 1.8704834 -2.304657 2.4223633 -2.7655945c0.5518799 -0.4609375 0.8399658 -0.23077393 0.8888855 0c0.04888916 0.23077393 0.29968262 0.16906738 -0.59542847 1.384613z" fill-rule="evenodd"/><path fill="#000000" fill-opacity="0.0" d="m223.27338 173.46352l-0.16114807 2.420807l-0.80914307 2.0741882l-1.776062 3.284607l-2.7480469 5.012192l-2.7463531 3.9760132l-3.070343 4.1483917l-1.9389038 2.0742035l-1.9388885 1.8999939l-3.3926544 2.5932007l-6.624161 5.1864014l-4.5240936 2.7656097l-13.087158 8.122589l-10.987091 1.5570068l-9.694504 0.5171814l-13.411148 0.17422485l-13.572296 0.8637848l-10.987106 1.0361938l-13.087151 1.7294159l-10.664795 2.5932007l-7.1092987 3.4570007l-5.816704 5.3569794l-4.5241013 5.531204l-6.948143 10.717606l-5.1704025 10.198608l-3.7149506 9.505402l-3.8778038 11.408997l-2.9091988 12.44519l-1.1314468 7.258789l2.5852013 5.5312195l3.716648 4.494995l6.1406937 5.358795l7.2704544 3.4570007l6.3018494 1.3828125l6.4629974 -0.69140625l6.463005 -5.1864014l3.7149506 -3.284607l5.009247 -6.222595l3.8778 -5.184601l2.585205 -3.8035889l3.7166443 -6.2226257l2.9075012 -5.356964l3.0703506 -5.186432l1.6166 -2.4189758l6.4629974 0.1723938l11.309402 0.1723938l11.311096 0l8.401901 0.1723938l6.6241455 0.17422485l7.9167633 0.69137573l3.3926392 0.69140625l0.16285706 1.8999939l-2.909195 2.7655945l-11.148254 9.507202l-5.9778595 5.7036133l-2.909195 3.8035889l-1.9389038 3.284607l-1.7777405 5.7036133l-0.9685974 6.0502014l-0.16116333 9.332977l0 11.9262085l0.64630127 7.951996l0.80744934 10.371002l1.1314545 9.160614l1.9389038 11.408997l3.231491 11.062408l3.2315063 7.431183l3.0686493 3.1122131l5.655548 3.110382l6.3018494 2.248413l7.43161 2.246582l6.140686 1.0361938l7.109314 -0.69137573l5.170395 -3.6293945l2.9075012 -3.284607l1.9389038 -7.258789l1.2926025 -7.6054077l0.32398987 -9.507202l0.16114807 -11.581421l-0.48513794 -10.888184l-0.64630127 -9.679596l-0.3223114 -8.12439l5.4927063 -1.3828125l8.725891 -2.420807l7.1092987 -2.0741882l5.8167114 -2.0742188l4.0389404 -1.5552063l4.8480988 -1.7275696l4.685257 -1.7294006l5.977844 -1.901825l6.624161 -2.4189758l8.07959 -2.9380188l6.6241455 -2.7655945l6.3018494 -2.5932007l5.655548 -3.1122131l5.6538696 -3.6293945l4.3629456 -3.8017883l6.140686 -5.705414l7.109314 -7.431183l5.653839 -6.9140015l4.3629456 -6.9140015l6.624176 -10.890015l5.3332214 -10.71759l4.2001038 -10.196793l4.038971 -10.545212l3.3943481 -10.196793l3.3926392 -12.100403l3.2315063 -12.013306l2.8667908 0.38835144l2.2628784 1.253952l2.666626 2.5932007l1.4944763 2.0742035l0.8888855 1.9435425l0.32229614 2.852707l-0.24258423 3.3281555l-4.1203613 19.5316l-3.2315063 12.272797l-3.0686646 11.407196l4.524109 2.246582l7.916748 2.765625l7.109314 1.9017944l6.138977 1.2103882l6.787018 0.51901245l6.462982 0l8.240753 -0.34658813l6.946472 -0.69140625l5.9795227 -1.5552063l5.17041 -20.050598l2.585205 -14.000397l0.48345947 -16.421204l-0.48345947 -8.815796l-1.2926025 -8.815811l-3.070343 -12.098587l-3.3926697 -9.507202l-5.3332214 -11.062408l-5.17041 -8.4691925l-8.885345 -11.581406l-4.6869507 -5.875992l-5.6538696 -5.531204l-5.494385 -4.322609l-7.109314 -3.9741898l-0.9685974 -4.4950027l0.48345947 -3.9760056l1.9389038 -6.0483932l2.7480469 -7.7796097l1.2926025 -5.5311966l0.64630127 -7.0863953l0 -6.9140015l-0.48516846 -9.332993l-1.6165771 -8.988201l-3.0686646 -9.162411l-3.555481 -7.7777977l-4.2001038 -7.9501915l-5.0092773 -6.222599l-6.7869873 -5.8778076l-8.077911 -6.222601l-8.887024 -5.1845922l-7.916748 -2.5932035l-9.372223 -1.3828001l-10.663086 -0.3466072l-8.4019165 0.17421103l-7.7555847 1.0361924l-8.887054 2.7656002l-8.563049 3.9760036l-7.755615 5.875993l-6.462982 6.3968105l-3.8778076 5.5312004l-3.5554962 6.5673943l-3.5538025 8.124401l-2.909195 8.815804l-2.1000519 9.332996l-1.1314545 10.543396l0 9.334808l-0.24256897 12.877098l-1.1297455 1.555191l-2.342636 0.95090485l-8.240738 1.3827972l-9.855652 3.1122055l-9.372208 3.6294022l-10.501953 3.6293945l-6.6241455 1.7294083l-2.909195 -0.34661102l-11.633408 -7.9501877l-12.279694 -9.162415l-13.619797 -6.977516l-3.8778076 3.1103973l-4.5240936 6.222595l-3.669159 6.979332l-3.8777924 7.6054l-2.9075012 7.0863953l-1.7777557 7.0863953l-1.3400879 5.1210785l0 4.839798l5.7030487 5.07753l5.170395 4.320801l4.846405 3.2845917l4.6869354 4.148407l5.9778595 5.1864014l5.170395 4.148407l3.2315063 2.418991l5.492691 4.4950104l5.6555634 3.1103973l6.7869873 0.1723938l7.7556 -0.34480286l10.177963 -0.691391l8.887039 -0.69140625l8.563049 -0.1723938z" fill-rule="evenodd"/><path stroke="#000000" stroke-width="4.0" stroke-linejoin="round" stroke-linecap="butt" d="m223.27338 173.46352l-0.16114807 2.420807l-0.80914307 2.0741882l-1.776062 3.284607l-2.7480469 5.012192l-2.7463531 3.9760132l-3.070343 4.1483917l-1.9389038 2.0742035l-1.9388885 1.8999939l-3.3926544 2.5932007l-6.624161 5.1864014l-4.5240936 2.7656097l-13.087158 8.122589l-10.987091 1.5570068l-9.694504 0.5171814l-13.411148 0.17422485l-13.572296 0.8637848l-10.987106 1.0361938l-13.087151 1.7294159l-10.664795 2.5932007l-7.1092987 3.4570007l-5.816704 5.3569794l-4.5241013 5.531204l-6.948143 10.717606l-5.1704025 10.198608l-3.7149506 9.505402l-3.8778038 11.408997l-2.9091988 12.44519l-1.1314468 7.258789l2.5852013 5.5312195l3.716648 4.494995l6.1406937 5.358795l7.2704544 3.4570007l6.3018494 1.3828125l6.4629974 -0.69140625l6.463005 -5.1864014l3.7149506 -3.284607l5.009247 -6.222595l3.8778 -5.184601l2.585205 -3.8035889l3.7166443 -6.2226257l2.9075012 -5.356964l3.0703506 -5.186432l1.6166 -2.4189758l6.4629974 0.1723938l11.309402 0.1723938l11.311096 0l8.401901 0.1723938l6.6241455 0.17422485l7.9167633 0.69137573l3.3926392 0.69140625l0.16285706 1.8999939l-2.909195 2.7655945l-11.148254 9.507202l-5.9778595 5.7036133l-2.909195 3.8035889l-1.9389038 3.284607l-1.7777405 5.7036133l-0.9685974 6.0502014l-0.16116333 9.332977l0 11.9262085l0.64630127 7.951996l0.80744934 10.371002l1.1314545 9.160614l1.9389038 11.408997l3.231491 11.062408l3.2315063 7.431183l3.0686493 3.1122131l5.655548 3.110382l6.3018494 2.248413l7.43161 2.246582l6.140686 1.0361938l7.109314 -0.69137573l5.170395 -3.6293945l2.9075012 -3.284607l1.9389038 -7.258789l1.2926025 -7.6054077l0.32398987 -9.507202l0.16114807 -11.581421l-0.48513794 -10.888184l-0.64630127 -9.679596l-0.3223114 -8.12439l5.4927063 -1.3828125l8.725891 -2.420807l7.1092987 -2.0741882l5.8167114 -2.0742188l4.0389404 -1.5552063l4.8480988 -1.7275696l4.685257 -1.7294006l5.977844 -1.901825l6.624161 -2.4189758l8.07959 -2.9380188l6.6241455 -2.7655945l6.3018494 -2.5932007l5.655548 -3.1122131l5.6538696 -3.6293945l4.3629456 -3.8017883l6.140686 -5.705414l7.109314 -7.431183l5.653839 -6.9140015l4.3629456 -6.9140015l6.624176 -10.890015l5.3332214 -10.71759l4.2001038 -10.196793l4.038971 -10.545212l3.3943481 -10.196793l3.3926392 -12.100403l3.2315063 -12.013306l2.8667908 0.38835144l2.2628784 1.253952l2.666626 2.5932007l1.4944763 2.0742035l0.8888855 1.9435425l0.32229614 2.852707l-0.24258423 3.3281555l-4.1203613 19.5316l-3.2315063 12.272797l-3.0686646 11.407196l4.524109 2.246582l7.916748 2.765625l7.109314 1.9017944l6.138977 1.2103882l6.787018 0.51901245l6.462982 0l8.240753 -0.34658813l6.946472 -0.69140625l5.9795227 -1.5552063l5.17041 -20.050598l2.585205 -14.000397l0.48345947 -16.421204l-0.48345947 -8.815796l-1.2926025 -8.815811l-3.070343 -12.098587l-3.3926697 -9.507202l-5.3332214 -11.062408l-5.17041 -8.4691925l-8.885345 -11.581406l-4.6869507 -5.875992l-5.6538696 -5.531204l-5.494385 -4.322609l-7.109314 -3.9741898l-0.9685974 -4.4950027l0.48345947 -3.9760056l1.9389038 -6.0483932l2.7480469 -7.7796097l1.2926025 -5.5311966l0.64630127 -7.0863953l0 -6.9140015l-0.48516846 -9.332993l-1.6165771 -8.988201l-3.0686646 -9.162411l-3.555481 -7.7777977l-4.2001038 -7.9501915l-5.0092773 -6.222599l-6.7869873 -5.8778076l-8.077911 -6.222601l-8.887024 -5.1845922l-7.916748 -2.5932035l-9.372223 -1.3828001l-10.663086 -0.3466072l-8.4019165 0.17421103l-7.7555847 1.0361924l-8.887054 2.7656002l-8.563049 3.9760036l-7.755615 5.875993l-6.462982 6.3968105l-3.8778076 5.5312004l-3.5554962 6.5673943l-3.5538025 8.124401l-2.909195 8.815804l-2.1000519 9.332996l-1.1314545 10.543396l0 9.334808l-0.24256897 12.877098l-1.1297455 1.555191l-2.342636 0.95090485l-8.240738 1.3827972l-9.855652 3.1122055l-9.372208 3.6294022l-10.501953 3.6293945l-6.6241455 1.7294083l-2.909195 -0.34661102l-11.633408 -7.9501877l-12.279694 -9.162415l-13.619797 -6.977516l-3.8778076 3.1103973l-4.5240936 6.222595l-3.669159 6.979332l-3.8777924 7.6054l-2.9075012 7.0863953l-1.7777557 7.0863953l-1.3400879 5.1210785l0 4.839798l5.7030487 5.07753l5.170395 4.320801l4.846405 3.2845917l4.6869354 4.148407l5.9778595 5.1864014l5.170395 4.148407l3.2315063 2.418991l5.492691 4.4950104l5.6555634 3.1103973l6.7869873 0.1723938l7.7556 -0.34480286l10.177963 -0.691391l8.887039 -0.69140625l8.563049 -0.1723938z" fill-rule="evenodd"/></g></svg>